<?xml version="1.0" encoding="utf-8"?>
<svg xmlns="http://www.w3.org/2000/svg" xmlns:xlink="http://www.w3.org/1999/xlink" version= "1.1" width="720px" height="1392px" viewBox="0 0 720 1392">
<g id="layer1">
<g style="fill:rgb(254,254,254); fill-opacity:1.0; stroke-linejoin: miter">
<path d="M227.49556,397.2561L227.49556,397.2561L227.49556,397.25626L227.14418,397.06842C230.36612,394.91574,233.59703,392.8225,229.80873,383.32043L229.80873,383.32043C227.72955,378.10532,223.54404,370.69275,219.1743,362.95505L219.1743,362.95505C215.51453,356.4745,211.72899,349.7715,208.96545,343.9697L208.96545,343.9697C202.90904,331.2548,201.71754,322.77792,207.46872,315.287L207.46872,315.287C210.28252,311.62204,214.75327,308.20526,219.17285,304.8256L219.17285,304.8256C223.57593,301.45853,227.92772,298.1286,230.63754,294.59906L230.63754,294.59906C230.73882,294.46713,230.8371,294.33588,230.93364,294.2035L230.93364,294.2035C236.19353,286.99042,234.41528,278.8795,232.59715,270.64233C232.57819,270.55637,232.61089,270.4672,232.68094,270.41388C232.751,270.36057,232.84566,270.3528,232.92346,270.39404L232.92346,270.39404C236.04669,272.04813,239.19221,273.71655,242.77336,279.45993L242.77336,279.45993C243.85979,281.2023,244.98656,283.32022,246.18526,285.57306L246.18526,285.57306C247.5624,288.16125,249.0369,290.93225,250.66545,293.5441L250.66545,293.5441C252.27856,296.13116,254.0379,298.55396,255.99507,300.4818L255.99507,300.4818C258.6318,303.0791,261.6391,304.79047,264.489,306.41107L264.489,306.41107C267.00183,307.84,269.40298,309.2038,271.2702,311.04303L271.2702,311.04303C271.82083,311.58545,272.3258,312.16974,272.77472,312.81046L272.77472,312.81046C276.4546,318.06277,276.27957,327.01318,276.11716,335.8375C276.11685,335.8543,276.11465,335.87103,276.11063,335.8874L276.11063,335.8874C275.0488,340.19623,273.98413,344.51157,269.18112,353.22464L269.18112,353.22464C267.54443,356.1937,265.47412,359.67273,263.32642,363.2819L263.32642,363.2819C261.0064,367.18057,258.59558,371.23196,256.5397,374.96155L256.5397,374.96155C254.91798,377.90344,253.52002,380.63986,252.56126,382.94135L252.56126,382.94135C249.27945,390.8194,251.14708,393.57654,253.00421,396.36365C253.07338,396.46747,253.0453,396.6077,252.94148,396.67688C252.83768,396.74606,252.69742,396.718,252.62823,396.61417L252.62823,396.61417C250.7053,393.72827,248.79292,390.81247,252.14423,382.7676L252.14423,382.7676C253.11241,380.44348,254.51967,377.6902,256.14404,374.74344L256.14404,374.74344C258.20447,371.00565,260.6188,366.9485,262.93817,363.05087L262.93817,363.05087C265.0871,359.43967,267.15308,355.96783,268.78546,353.00656L268.78546,353.00656C273.5642,344.3375,274.61664,340.06177,275.672,335.77927L275.66547,335.82916C275.8291,326.938,275.98007,318.17282,272.40472,313.0697L272.40472,313.0697C271.97327,312.4539,271.48645,311.89023,270.9532,311.3649L270.9532,311.3649C269.136,309.57492,266.7904,308.23947,264.2657,306.8038L264.2657,306.8038C261.42133,305.1863,258.36304,303.4485,255.67802,300.80368L255.67802,300.80368C253.68526,298.84073,251.90428,296.3848,250.28209,293.78314L250.28209,293.78314C248.644,291.156,247.16235,288.37122,245.78642,285.78528L245.78642,285.78528C244.58557,283.52838,243.4665,281.42545,242.39,279.69897L242.39,279.69897C238.86855,274.05133,235.80139,272.42944,232.712,270.79327L233.03831,270.54495C234.84775,278.74274,236.69707,287.06668,231.29868,294.46967L231.29868,294.46967C231.19994,294.60507,231.09929,294.7395,230.9959,294.87418L230.99588,294.87418C228.24191,298.46124,223.83487,301.82922,219.4473,305.18445L219.4473,305.18445C215.01254,308.57574,210.59679,311.9546,207.82707,315.56213L207.82707,315.56213C202.24417,322.83386,203.32863,331.08508,209.37332,343.77542L209.37332,343.77542C212.1287,349.56006,215.90567,356.2484,219.56769,362.7329L219.56769,362.7329C223.93037,370.45813,228.13513,377.9027,230.2284,383.15314L230.2284,383.15314C234.11101,392.89172,230.75758,395.19754,227.39517,397.4441C227.32587,397.4904,227.2367,397.49475,227.16318,397.45547C227.08968,397.4162,227.04378,397.3396,227.04378,397.25626L227.04378,397.25626L227.04378,397.2561C227.04378,397.13135,227.14491,397.03024,227.26967,397.03024C227.39442,397.03024,227.49556,397.13135,227.49556,397.2561 Z"/>
</g>
<g style="fill:rgb(254,254,254); fill-opacity:1.0; stroke-linejoin: miter">
<path d="M271.3034,387.45844L271.3034,387.45844L271.3034,387.45856C271.3034,387.57684,271.2122,387.67505,271.09424,387.68384C270.97632,387.69263,270.87158,387.60892,270.85413,387.49194L270.85413,387.49194C270.55768,385.50757,270.26672,383.52838,267.4844,379.1659L267.4844,379.1659C266.88364,378.2239,266.1679,377.17267,265.39865,376.0428L265.39865,376.0428C264.51572,374.7459,263.56415,373.34824,262.64655,371.9095L262.64655,371.9095C260.65485,368.7866,258.80374,365.44138,258.14993,362.46344L258.14993,362.46344C257.63303,360.10913,257.86755,357.9971,258.1,355.88898L258.1,355.88898C258.3409,353.70416,258.58044,351.5188,258.02817,349.00336L258.02817,349.00336C257.8538,348.20917,257.60022,347.38116,257.2418,346.50967L257.2418,346.50967C256.13342,343.81464,254.02603,340.70743,251.70633,337.28925L251.70633,337.28925C248.93568,333.20654,245.87352,328.6958,243.93825,323.99023L243.93825,323.99023C243.6966,323.40265,243.47244,322.8119,243.26845,322.21814L243.26845,322.21814C241.16794,316.104,241.22787,309.72595,241.28333,303.6096L241.28333,303.6096C241.31247,300.39603,241.34073,297.25604,241.0605,294.24713L241.0605,294.24713C240.2463,285.505,236.82536,277.84558,233.38535,270.14807C233.33444,270.03415,233.38551,269.90057,233.4994,269.84967C233.61331,269.79877,233.7469,269.84982,233.7978,269.96375L233.7978,269.96375C237.23343,277.65143,240.68814,285.3772,241.51033,294.20523L241.51033,294.20523C241.79309,297.24124,241.76419,300.40466,241.73509,303.61368L241.73509,303.61368C241.6795,309.74258,241.62448,316.04245,243.69571,322.07135L243.69571,322.07135C243.89658,322.656,244.11757,323.23846,244.35608,323.8184L244.35608,323.8184C246.27043,328.4731,249.30423,332.9451,252.08015,337.03555L252.08015,337.03555C254.39008,340.43933,256.52945,343.58984,257.6596,346.33783L257.6596,346.33783C258.02795,347.23346,258.2894,348.0865,258.46942,348.9065L258.46942,348.9065C259.03958,351.50336,258.78955,353.7576,258.54907,355.93848L258.54907,355.93848C258.3159,358.0531,258.09238,360.0946,258.5912,362.36658L258.5912,362.36658C259.22635,365.25952,261.03732,368.54614,263.02747,371.66656L263.02747,371.66656C263.94092,373.09885,264.88852,374.4907,265.7721,375.7885L265.7721,375.7885C266.54034,376.91693,267.26007,377.974,267.86533,378.92297L267.86533,378.92297C270.68704,383.34726,270.9967,385.38867,271.30093,387.42517L270.85162,387.45856L270.85162,387.45844C270.85162,387.33368,270.95276,387.23254,271.0775,387.23254C271.20227,387.23254,271.3034,387.33368,271.3034,387.45844 Z"/>
</g>
<g style="fill:rgb(254,254,254); fill-opacity:1.0; stroke-linejoin: miter">
<path d="M209.66704,386.51956L209.66704,386.51956C209.37187,384.4396,209.0892,382.34247,212.1482,378.16986L212.1482,378.16986C212.90295,377.14035,213.86145,375.98373,214.9068,374.7222L214.9068,374.7222C216.17868,373.18723,217.5823,371.4932,218.92206,369.6657L218.92206,369.6657C220.9176,366.94373,222.76263,363.9371,223.81065,360.74234L223.81065,360.74234C224.9999,357.11707,225.16919,353.23358,225.33057,349.50073L225.33057,349.50073C225.47661,346.12296,225.6161,342.85803,226.52788,340.07855L226.52788,340.07855C226.5812,339.916,226.6374,339.7544,226.69624,339.59506L226.69624,339.59506C227.6522,337.00552,229.34369,334.88443,231.14978,332.61624L231.14978,332.61624C233.30171,329.91376,235.63452,326.98224,237.20087,322.73932L237.20087,322.73932C237.31439,322.43182,237.42406,322.1169,237.52914,321.79517L237.52914,321.79517C240.31262,313.2743,240.0227,299.6131,238.84412,290.27005L238.84412,290.27005C237.66829,280.94885,235.61366,275.9723,233.5534,270.9815C233.5058,270.8662,233.56068,270.73413,233.676,270.68652C233.79132,270.63892,233.92339,270.69382,233.971,270.80914L233.971,270.80914C236.03726,275.81445,238.10916,280.83395,239.29236,290.21353L239.29236,290.21353C240.4728,299.5713,240.77443,313.31555,237.95859,321.93546L237.95859,321.93546C237.85162,322.2629,237.74026,322.5827,237.6247,322.89578L237.6247,322.89578C236.03056,327.21393,233.6546,330.19583,231.5032,332.89764L231.5032,332.89764C229.6886,335.17654,228.04659,337.24176,227.12006,339.75153L227.12006,339.75153C227.0632,339.90552,227.00882,340.06186,226.95715,340.21936L226.95715,340.21936C226.06859,342.92804,225.9287,346.12564,225.78194,349.52026L225.78194,349.52026C225.62102,353.2421,225.4518,357.18884,224.23993,360.88315L224.23993,360.88315C223.17055,364.14304,221.29431,367.19397,219.28642,369.93283L219.28642,369.93283C217.93762,371.77264,216.52545,373.4768,215.25467,375.01044L215.25467,375.01044C214.20667,376.2752,213.25772,377.42053,212.51254,378.43695L212.51254,378.43695C209.53735,382.49527,209.83208,384.46707,210.11433,386.4561C210.13185,386.5796,210.04593,386.69397,209.92242,386.7115C209.7989,386.729,209.68456,386.64307,209.66704,386.51956 Z"/>
</g>
<g style="fill:rgb(254,254,254); fill-opacity:1.0; stroke-linejoin: miter">
<path d="M242.25854,393.9827L242.25854,393.9827L240.46164,321.13568C240.45856,321.01096,240.55716,320.90735,240.68188,320.9043C240.8066,320.9012,240.9102,320.99982,240.91327,321.12454L240.91327,321.12454L242.71017,393.97156C242.71326,394.09625,242.61465,394.1999,242.48993,394.20294C242.3652,394.20602,242.26161,394.10742,242.25854,393.9827 Z"/>
</g>
<g style="fill:rgb(254,254,254); fill-opacity:1.0; stroke-linejoin: miter">
<path d="M225.80356,347.31L225.80356,347.31L225.80356,347.31012L225.37398,347.21246C227.45126,342.88004,229.64265,338.22473,232.30984,338.22473L232.30984,338.22473C232.53207,338.22473,232.75577,338.25668,232.98091,338.32242L232.98091,338.32242C235.89558,339.17316,239.10054,345.7257,238.29077,351.55508L238.29077,351.55508C237.47455,357.43088,232.59845,362.67535,227.80255,367.84607C227.71771,367.93756,227.5748,367.94293,227.48334,367.8581C227.39186,367.77325,227.38649,367.6303,227.47133,367.53885L227.47133,367.53885C232.30118,362.3315,237.05078,357.198,237.84329,351.49292L237.84329,351.49292C238.64224,345.7415,235.43893,339.5105,232.85432,338.7561L232.85432,338.7561C232.66916,338.70206,232.48813,338.6765,232.30984,338.6765L232.30984,338.6765C230.00865,338.6765,227.95201,342.88065,225.78134,347.4078C225.73575,347.5029,225.63042,347.55377,225.52759,347.5304C225.42474,347.50702,225.35178,347.4156,225.35178,347.31012L225.35178,347.31012L225.35178,347.31C225.35178,347.18524,225.45291,347.0841,225.57767,347.0841C225.70242,347.0841,225.80356,347.18524,225.80356,347.31 Z"/>
</g>
<g style="fill:rgb(254,254,254); fill-opacity:1.0; stroke-linejoin: miter">
<path d="M250.93092,365.91296L250.93092,365.91296C247.61551,362.6808,244.21927,359.3817,243.7305,354.49115L243.7305,354.49115C243.2452,349.63538,245.63197,343.2201,247.94946,340.83966L247.94946,340.83966C248.77992,339.98666,249.61966,339.63123,250.46783,339.63123L250.46783,339.63123C251.99463,339.63123,253.46648,340.79382,254.84761,341.8723C254.94594,341.9491,254.96341,342.09103,254.88663,342.18936C254.80984,342.2877,254.66788,342.30518,254.56955,342.22836L254.56955,342.22836C253.14198,341.11362,251.8052,340.083,250.46783,340.083L250.46783,340.083C249.76428,340.083,249.03584,340.37146,248.27316,341.15482L248.27316,341.15482C246.05698,343.43115,243.70677,349.71094,244.18004,354.44623L244.18004,354.44623C244.64981,359.14667,247.90764,362.33466,251.24629,365.58948C251.33563,365.67657,251.33743,365.81958,251.25035,365.90894C251.16327,365.99823,251.02025,366.00006,250.93092,365.91296 Z"/>
</g>
<g style="fill:rgb(254,254,254); fill-opacity:1.0; stroke-linejoin: miter">
<path d="M239.35251,283.25073L239.35251,283.25073L239.35251,283.25085L239.32254,283.1384C245.12624,293.24796,250.9422,303.3779,254.66675,313.2247L254.66675,313.2247C258.39252,323.07474,260.0237,332.6349,260.67755,339.06094L260.67755,339.06094C261.22507,344.4417,261.08774,347.63043,260.94086,351.041L260.94086,351.041C260.9121,351.7079,260.8832,352.379,260.8588,353.08035L260.8588,353.08035C260.70963,357.3656,260.7338,362.65643,260.75806,367.95367C260.7586,368.07843,260.65796,368.18002,260.5332,368.1806C260.40845,368.18115,260.30685,368.0805,260.30627,367.95575L260.30627,367.95575C260.28204,362.66116,260.25775,357.3608,260.4073,353.06464L260.4073,353.06464C260.43182,352.35992,260.46072,351.6894,260.48947,351.02155L260.48947,351.02155C260.63605,347.6184,260.7723,344.45496,260.22812,339.10666L260.22812,339.10666C259.57697,332.70746,257.9523,323.1879,254.24419,313.38452L254.24419,313.38452C250.53484,303.5779,244.73889,293.48065,238.93073,283.36334C238.91107,283.3291,238.90074,283.29034,238.90074,283.25085L238.90074,283.25085L238.90074,283.25073C238.90074,283.12598,239.00188,283.02484,239.12663,283.02484C239.25139,283.02484,239.35251,283.12598,239.35251,283.25073 Z"/>
</g>
<g style="fill:rgb(254,254,254); fill-opacity:1.0; stroke-linejoin: miter">
<path d="M224.46567,371.8502L224.46567,371.8502L224.46567,371.85034C224.46567,371.9588,224.38857,372.05194,224.282,372.07224C224.17543,372.09253,224.0695,372.03418,224.02966,371.9333L224.02966,371.9333C220.7369,363.59363,217.4221,355.20468,219.67622,342.9146L219.67622,342.9146C221.39578,333.53918,226.35706,321.89624,230.41391,312.3733L230.41391,312.3733C231.66415,309.4385,232.82831,306.7058,233.78831,304.29724L233.78831,304.29724C237.86198,294.07687,238.24945,289.71832,238.63939,285.3555C238.6505,285.23123,238.76024,285.13953,238.88449,285.1506C239.00876,285.1617,239.10048,285.27145,239.08939,285.39572L239.08939,285.39572C238.69629,289.79385,238.30067,294.1964,234.20798,304.46454L234.20798,304.46454C233.2455,306.8793,232.07933,309.61667,230.82956,312.55035L230.82956,312.55035C226.76611,322.0887,221.82913,333.68073,220.12059,342.9961L220.12059,342.9961C217.89137,355.1504,221.15962,363.43408,224.44987,371.76736L224.01389,371.85034L224.01389,371.8502C224.01389,371.72546,224.11502,371.6243,224.23978,371.6243C224.36453,371.6243,224.46567,371.72546,224.46567,371.8502 Z"/>
</g>
<g style="fill:rgb(254,0,0); fill-opacity:1.0; stroke-linejoin: miter">
<path d="M200.70312,395.44305L200.70312,395.44305L200.70312,395.44324C200.70312,395.55627,200.61954,395.65192,200.50752,395.6671C200.3955,395.68225,200.28952,395.61224,200.25946,395.50323L200.25943,395.50317L200.25458,395.48553L200.25461,395.4856C199.21277,391.70746,198.1384,387.82507,200.55518,383.76813L200.55518,383.76813C201.44583,382.273,202.80914,380.75894,204.26445,379.1413L204.26445,379.1413C205.99606,377.21652,207.86993,375.13263,209.31477,372.70724L209.31477,372.70724C209.93842,371.66034,210.48099,370.5515,210.89655,369.36673L210.89655,369.36673C213.08865,363.117,211.76987,354.6836,207.29593,348.3282L207.29593,348.3282C205.0485,345.13565,202.00366,342.46475,199.22278,340.0267L199.22278,340.0267C196.93076,338.0172,194.80516,336.15552,193.50067,334.3025L193.50067,334.3025C193.24246,333.93567,193.01567,333.56848,192.82489,333.198L192.82489,333.198C190.4881,328.66064,193.77127,324.0535,196.90079,319.62122L196.86026,319.77084C196.34308,313.7485,195.79236,307.5421,198.3195,304.594L198.31949,304.594C200.39372,302.17426,204.47156,301.9985,208.76604,302.19962L208.76604,302.19962C209.76372,302.24634,210.78238,302.31433,211.79654,302.38202L211.56932,302.52988C213.2557,297.91644,214.9697,293.2073,217.66713,290.89197L217.66713,290.89197C220.38727,288.5572,224.07343,288.67334,227.63965,288.77548L227.4107,289.04034C226.94272,286.37408,226.42566,283.52997,227.56485,281.97577L227.56485,281.97577C228.70938,280.41425,231.46452,280.227,234.0232,280.0349C234.14761,280.02557,234.25603,280.11887,234.26537,280.2433C234.27472,280.36768,234.18143,280.47607,234.057,280.4854L234.057,280.4854C231.39047,280.6856,228.92038,280.89062,227.92924,282.24283L227.92924,282.24283C226.93282,283.6023,227.36967,286.1933,227.85568,288.96222C227.8674,289.02908,227.84846,289.09766,227.80408,289.149C227.75967,289.20035,227.69456,289.22903,227.62671,289.22708L227.62671,289.22708C224.01593,289.12366,220.5252,289.03415,217.96138,291.2348L217.96138,291.2348C215.37488,293.4549,213.69812,298.02203,211.99365,302.685C211.95917,302.77927,211.86661,302.8395,211.76643,302.83282L211.76643,302.83282C210.7518,302.76508,209.73703,302.69733,208.7449,302.65088L208.7449,302.65088C204.39807,302.44733,200.56949,302.6634,198.6625,304.88806L198.6625,304.88806C196.29088,307.6547,196.78386,313.60126,197.31036,319.73218C197.31493,319.78528,197.30057,319.83826,197.26984,319.88177L197.26984,319.88177C194.07837,324.4018,191.04065,328.7469,193.22653,332.99115L193.22653,332.99115C193.40634,333.34033,193.62173,333.68964,193.87009,334.04242L193.87009,334.04242C195.13663,335.84155,197.21411,337.66486,199.5206,339.687L199.5206,339.687C202.29443,342.1189,205.38159,344.82397,207.66534,348.0681L207.66536,348.0681C212.21233,354.52728,213.56924,363.1118,211.32286,369.5163L211.32286,369.5163C210.89575,370.73395,210.33932,371.87012,209.70291,372.93848L209.70291,372.93848C208.23187,375.40784,206.32764,377.52344,204.60031,379.44348L204.60031,379.44348C203.13582,381.07132,201.80661,382.55014,200.9433,383.99936L200.9433,383.99936C198.63757,387.86993,199.64232,391.56573,200.69012,395.36554L200.69016,395.3656L200.695,395.38324L200.25134,395.44324L200.25134,395.44305C200.25134,395.3183,200.35248,395.21716,200.47723,395.21716C200.60199,395.21716,200.70312,395.3183,200.70312,395.44305 Z"/>
</g>
<g style="fill:rgb(254,0,0); fill-opacity:1.0; stroke-linejoin: miter">
<path d="M276.68637,394.43823L276.68637,394.43823L276.68634,394.4383L276.34372,394.21625C279.11115,392.50623,281.6325,390.92123,280.27448,387.42987L280.27448,387.42987C279.60568,385.71057,278.0052,383.5321,276.1681,381.03534L276.1681,381.03534C274.15393,378.2979,271.87448,375.2011,270.3365,371.99423L270.3365,371.99423C267.39194,365.85455,267.1723,359.33145,270.91855,350.92047L270.91855,350.92047C272.95435,346.34976,276.16385,341.21643,279.10287,336.5149L279.10287,336.5149C281.56467,332.57684,283.83258,328.94803,285.0871,326.1816L285.0871,326.1816C287.8062,320.1856,285.74014,318.32272,283.65778,316.40115C283.60577,316.35315,283.57925,316.28357,283.58615,316.21313L283.58615,316.21313C283.9073,312.9289,284.20764,309.76117,283.08984,307.74652L283.08984,307.74652C281.98016,305.74655,279.4424,304.842,276.77634,303.90488C276.6972,303.87704,276.63998,303.80768,276.62778,303.72467L276.62778,303.72467C276.0334,299.69025,275.44763,295.83572,273.0179,294.24597L273.0179,294.24597C272.4581,293.8797,271.79227,293.629,271.03763,293.4702L271.03763,293.4702C268.52695,292.94202,265.1334,293.4473,261.67755,293.96515C261.57288,293.98083,261.47134,293.92175,261.4333,293.82297L261.4333,293.82297C260.42444,291.20398,259.45956,288.74017,257.8697,287.9531L257.86972,287.9531C257.65756,287.84808,257.43225,287.77228,257.1944,287.72226L257.1944,287.72226C255.66376,287.4002,253.67845,288.14603,251.59485,288.93805C251.52383,288.96506,251.44402,288.95456,251.38242,288.9101C251.3208,288.86566,251.28568,288.7932,251.2889,288.71735L251.2889,288.71735C251.39427,286.23615,251.47887,283.9104,250.46454,282.6867L250.46454,282.6867C249.93738,282.05078,249.08694,281.68997,248.03403,281.46844L248.03403,281.46844C247.11053,281.27417,246.06343,281.19308,244.99747,281.1109C244.87308,281.10132,244.78001,280.99268,244.7896,280.86832C244.79918,280.74393,244.90779,280.65088,245.03218,280.66046L245.03218,280.66046C246.09085,280.74207,247.16925,280.82486,248.12704,281.02637L248.12704,281.02637C249.21298,281.25482,250.18686,281.64383,250.81235,282.3984L250.81235,282.3984C251.96465,283.7885,251.84204,286.3402,251.74026,288.7365L251.43433,288.51578C253.46652,287.7433,255.59729,286.92456,257.2874,287.28015L257.2874,287.28015C257.55908,287.3373,257.82114,287.42493,258.07016,287.54822L258.07016,287.54822C259.8568,288.43274,260.87787,291.12427,261.85486,293.66055L261.6106,293.51837C265.03534,293.00516,268.5223,292.47937,271.13065,293.02814L271.13065,293.02814C271.92538,293.1953,272.64725,293.46356,273.26526,293.86792L273.26526,293.86792C275.90457,295.59482,276.49396,299.71667,277.0747,303.6588L276.92615,303.47864C279.5362,304.39612,282.27466,305.3462,283.48486,307.5273L283.48486,307.5273C284.68698,309.69388,284.35098,313.0337,284.03577,316.2571L283.96417,316.06912C286.13623,318.0735,288.3246,320.13644,285.49857,326.36823L285.49857,326.36823C284.22867,329.16846,281.94086,332.82736,279.48596,336.7544L279.48596,336.7544C276.54208,341.46365,273.3516,346.5683,271.33124,351.1043L271.33124,351.1043C267.63138,359.4112,267.86417,365.79443,270.74384,371.7989L270.74384,371.7989C272.26025,374.9608,274.51273,378.0233,276.53198,380.76758L276.53198,380.76758C278.35248,383.24182,279.9997,385.4773,280.6955,387.2661L280.6955,387.2661C282.20685,391.15155,279.271,392.93857,276.58118,394.60056C276.50693,394.64645,276.41287,394.64545,276.3396,394.59796C276.26636,394.55048,276.227,394.46503,276.23856,394.3785L276.23856,394.3785L276.23856,394.37845C276.25507,394.25476,276.36868,394.1679,276.49237,394.18442C276.61603,394.20093,276.70288,394.31458,276.68637,394.43823 Z"/>
</g>
<g style="fill:rgb(254,0,0); fill-opacity:1.0; stroke-linejoin: miter">
<path d="M114.5931,370.55048L114.5931,370.55048L114.59309,370.55066C114.58588,370.6217,114.54551,370.68512,114.48421,370.72174C114.422905,370.75836,114.34791,370.76385,114.28192,370.73654L114.28192,370.73654C102.28249,365.76727,90.10341,360.74197,87.18678,354.3651L87.18678,354.3651C84.23771,347.91727,90.71149,340.25354,94.7883,337.27316L94.78831,337.27316C96.34646,336.13406,97.629654,335.61755,98.79005,335.7353L98.79005,335.7353C100.695015,335.9286,102.111534,337.81525,103.808044,340.82666L103.808044,340.82666C106.565796,345.72186,110.21911,353.9165,113.86528,362.0946C113.91609,362.20856,113.86491,362.3421,113.75096,362.3929C113.63702,362.44373,113.50346,362.39252,113.45266,362.2786L113.45266,362.2786C109.80219,354.09088,106.15917,345.9205,103.41443,341.0484L103.41443,341.0484C101.68911,337.98587,100.377785,336.3505,98.744446,336.18475L98.744446,336.18475C97.75337,336.08423,96.585526,336.51892,95.054924,337.63788L95.054924,337.63788C90.96305,340.62927,84.80785,348.07767,87.59763,354.1772L87.59763,354.1772C90.419846,360.34766,102.347534,365.30524,114.45477,370.31915L114.143616,370.50504L114.14363,370.50488C114.15623,370.38074,114.26705,370.29034,114.391174,370.30292C114.51529,370.31555,114.6057,370.42636,114.5931,370.55048 Z"/>
</g>
<g style="fill:rgb(254,0,0); fill-opacity:1.0; stroke-linejoin: miter">
<path d="M56.33995,366.40784L56.33998,366.40784L56.382267,366.3945L56.38224,366.3945C66.515434,363.19568,76.428764,360.03552,78.86938,353.63116L78.86938,353.63116C80.984215,348.08173,77.506996,340.07086,73.05981,338.3761L73.05981,338.3761C72.65213,338.2207,72.2377,338.11902,71.81965,338.0766L71.81965,338.0766C71.52566,338.04675,71.22899,338.0462,70.93159,338.07724L70.93159,338.07724C65.523636,338.6413,59.572533,349.516,53.509964,360.65594C53.450325,360.7655,53.313156,360.80597,53.203575,360.74634C53.094,360.6867,53.053505,360.54953,53.113144,360.43994L53.113144,360.43994C59.08619,349.46454,65.17073,338.22388,70.88473,337.6279L70.88473,337.6279C71.21365,337.5936,71.541275,337.59424,71.86526,337.6271L71.86526,337.6271C72.32589,337.67383,72.77903,337.78558,73.22068,337.95392L73.22068,337.95392C77.933556,339.74994,81.48231,348.04333,79.29154,353.79208L79.29154,353.79208C76.75345,360.4522,66.536476,363.66278,56.518238,366.82532L56.518204,366.82532L56.475914,366.83868C56.35698,366.87622,56.230095,366.81024,56.192535,366.69128C56.15498,366.5723,56.22098,366.44543,56.33995,366.40784 Z"/>
</g>
<g style="fill:rgb(254,0,0); fill-opacity:1.0; stroke-linejoin: miter">
<path d="M57.590607,368.06152L57.590607,368.06152L57.590588,368.0617C57.35843,370.3498,55.31536,372.01645,53.027267,371.7843C50.739174,371.55212,49.072502,369.5091,49.30466,367.22095L49.30466,367.22095L49.30468,367.22083C49.536835,364.93268,51.579903,363.26605,53.867996,363.4982C56.156097,363.73035,57.82276,365.77344,57.590607,368.06152 Z"/>
</g>
<g style="fill:rgb(254,0,0); fill-opacity:1.0; stroke-linejoin: miter">
<path d="M116.33082,369.43347L116.33082,369.43347L116.3308,369.43362C116.09864,371.7217,114.05557,373.38837,111.76748,373.15622C109.479385,372.92407,107.81272,370.88098,108.04488,368.5929L108.04488,368.5929L108.0449,368.59274C108.277054,366.30463,110.32012,364.63797,112.608215,364.87012C114.89631,365.1023,116.56297,367.14536,116.33082,369.43347 Z"/>
</g>
<g style="fill:rgb(254,0,0); fill-opacity:1.0; stroke-linejoin: miter">
<path d="M47.56477,325.26727L47.56477,325.26727L47.564754,325.26746C47.332596,327.55554,45.289528,329.22223,43.001434,328.99005C40.713333,328.7579,39.04667,326.71484,39.278824,324.42676L39.278824,324.42676L39.278843,324.42657C39.510998,322.1385,41.55407,320.4718,43.842163,320.70398C46.13026,320.93613,47.79693,322.9792,47.56477,325.26727 Z"/>
</g>
<g style="fill:rgb(254,0,0); fill-opacity:1.0; stroke-linejoin: miter">
<path d="M204.52963,393.30164L204.52963,393.30164L204.52963,393.30188C204.42784,395.59946,202.48276,397.37952,200.18517,397.2777C197.88757,397.1759,196.10753,395.23087,196.20932,392.9333L196.20932,392.9333L196.20932,392.93304C196.31111,390.63544,198.2562,388.8554,200.55377,388.9572C202.85138,389.059,204.63142,391.00403,204.52963,393.30164 Z"/>
</g>
<g style="fill:rgb(254,0,0); fill-opacity:1.0; stroke-linejoin: miter">
<path d="M281.46106,394.19754L281.46106,394.19754L281.46106,394.19775C281.35928,396.49536,279.41418,398.2754,277.1166,398.1736C274.819,398.07184,273.03894,396.12677,273.14075,393.82916L273.14075,393.82916L273.14075,393.82892C273.24255,391.53134,275.18762,389.75128,277.48523,389.8531C279.78284,389.95486,281.56287,391.89996,281.46106,394.19754 Z"/>
</g>
<g style="fill:rgb(0,148,131); fill-opacity:1.0; stroke-linejoin: miter">
<path d="M231.84735,365.8533L231.84735,365.8533L231.84735,365.85352C231.74556,368.15112,229.80048,369.93115,227.5029,369.82938C225.20529,369.7276,223.42525,367.78253,223.52704,365.48492L223.52704,365.48492L223.52704,365.48468C223.62885,363.1871,225.57391,361.40704,227.8715,361.50885C230.1691,361.61063,231.94914,363.55573,231.84735,365.8533 Z"/>
</g>
<g style="fill:rgb(0,148,131); fill-opacity:1.0; stroke-linejoin: miter">
<path d="M257.822,366.71503L257.822,366.71503L257.822,366.71524C257.7202,369.01282,255.77512,370.79288,253.47752,370.6911C251.17993,370.5893,249.39987,368.64423,249.50168,366.34662L249.50168,366.34662L249.50168,366.34644C249.60347,364.04883,251.54855,362.26877,253.84613,362.37054C256.14374,362.47235,257.92377,364.41742,257.822,366.71503 Z"/>
</g>
<g style="fill:rgb(0,148,131); fill-opacity:1.0; stroke-linejoin: miter">
<path d="M274.50327,388.15305L274.50327,388.15305L274.50327,388.15326C274.4015,390.45087,272.4564,392.2309,270.1588,392.1291C267.8612,392.02734,266.08118,390.08228,266.18295,387.78467L266.18295,387.78467L266.18295,387.78442C266.28473,385.48685,268.22983,383.7068,270.5274,383.8086C272.825,383.91037,274.60504,385.85547,274.50327,388.15305 Z"/>
</g>
<g style="fill:rgb(0,148,131); fill-opacity:1.0; stroke-linejoin: miter">
<path d="M214.83235,385.57617L214.83235,385.57617L214.83234,385.5764C214.73056,387.87396,212.78548,389.654,210.48788,389.55222C208.19029,389.45044,206.41025,387.50537,206.51202,385.20776L206.51202,385.20776L206.51204,385.20755C206.61383,382.90997,208.5589,381.12988,210.8565,381.2317C213.15408,381.3335,214.93414,383.27856,214.83235,385.57617 Z"/>
</g>
<g style="fill:rgb(0,148,131); fill-opacity:1.0; stroke-linejoin: miter">
<path d="M231.5196,397.3432L231.5196,397.3432L231.51959,397.3434C231.41782,399.641,229.47273,401.42105,227.17514,401.31927C224.87755,401.21747,223.0975,399.2724,223.19928,396.9748L223.19928,396.9748L223.19931,396.97458C223.30109,394.677,225.24615,392.89697,227.54375,392.99875C229.84134,393.10052,231.6214,395.0456,231.5196,397.3432 Z"/>
</g>
<g style="fill:rgb(0,148,131); fill-opacity:1.0; stroke-linejoin: miter">
<path d="M258.25656,395.54837L258.25656,395.54837L258.25653,395.54858C258.15475,397.8462,256.2097,399.62622,253.91208,399.5244C251.61449,399.42264,249.83444,397.4776,249.93623,395.18L249.93623,395.18L249.93625,395.17975C250.03802,392.88217,251.9831,391.1021,254.28069,391.20392C256.5783,391.30573,258.35834,393.2508,258.25656,395.54837 Z"/>
</g>
<g style="fill:rgb(0,148,131); fill-opacity:1.0; stroke-linejoin: miter">
<path d="M246.20345,394.10284L246.20345,394.10284L246.20343,394.10306C246.10165,396.40063,244.15659,398.1807,241.859,398.07892C239.56139,397.9771,237.78134,396.03204,237.88313,393.73444L237.88313,393.73444L237.88315,393.73425C237.98492,391.43665,239.93,389.6566,242.2276,389.75836C244.52519,389.86017,246.30524,391.80524,246.20345,394.10284 Z"/>
</g>
<g style="fill:rgb(0,148,131); fill-opacity:1.0; stroke-linejoin: miter">
<path d="M244.96474,320.1894L244.96474,320.1894L244.96472,320.18964C244.86295,322.4872,242.91786,324.26727,240.62027,324.16547C238.32268,324.0637,236.54263,322.11862,236.64441,319.82104L236.64441,319.82104L236.64444,319.8208C236.74622,317.5232,238.69128,315.74316,240.98889,315.84494C243.28647,315.94672,245.06653,317.89178,244.96474,320.1894 Z"/>
</g>
<g style="fill:rgb(0,148,131); fill-opacity:1.0; stroke-linejoin: miter">
<path d="M88.37198,303.6242L88.37198,303.6242L88.37197,303.62445C88.269585,305.922,86.32404,307.70154,84.02648,307.59918C81.72892,307.4968,79.94938,305.55127,80.05176,303.2537L80.05176,303.2537L80.05177,303.25342C80.15416,300.95587,82.09969,299.17633,84.397255,299.27872C86.69482,299.3811,88.474365,301.32663,88.37198,303.6242 Z"/>
</g>
<g style="fill:rgb(0,148,131); fill-opacity:1.0; stroke-linejoin: miter">
<path d="M128.34908,325.43872L128.34908,325.43872L128.34906,325.43896C128.24667,327.7365,126.30113,329.51605,124.00357,329.4137C121.70601,329.31128,119.92645,327.36575,120.02884,325.06818L120.02884,325.06818L120.02885,325.06793C120.13123,322.7704,122.07678,320.99084,124.374344,321.0932C126.671906,321.19562,128.45146,323.1411,128.34908,325.43872 Z"/>
</g>
<g style="fill:rgb(254,254,254); fill-opacity:1.0; stroke-linejoin: miter">
<path d="M90.00389,340.9071L90.00389,340.9071L90.00389,340.90726L89.71718,340.80496L89.7436,340.7702L89.74359,340.7702C94.3557,334.69788,98.99689,328.58984,104.074295,325.68323L104.074295,325.68323C108.21489,323.31287,112.63242,323.07574,117.07177,323.23438L117.07177,323.23438C118.10361,323.27127,119.13598,323.32953,120.16848,323.38776C120.25653,323.3927,120.32387,323.4681,120.3189,323.55615C120.313934,323.6442,120.23854,323.71155,120.1505,323.70657L120.1505,323.70657C119.116875,323.64825,118.08892,323.59027,117.06036,323.55353L117.06036,323.55353C112.634964,323.3954,108.29306,323.63608,104.23294,325.96036L104.23294,325.96036C99.22456,328.82745,94.624886,334.8714,89.997894,340.96332L89.99789,340.96335L89.971466,340.9981C89.929375,341.05353,89.85623,341.07532,89.79068,341.05194C89.72513,341.02856,89.682274,340.9654,89.68475,340.89584L89.68475,340.89584L89.68476,340.8957C89.68791,340.8076,89.7619,340.7387,89.85003,340.74185C89.938156,340.745,90.00704,340.81897,90.00389,340.9071 Z"/>
</g>
<g style="fill:rgb(254,254,254); fill-opacity:1.0; stroke-linejoin: miter">
<path d="M81.30647,344.03336L81.30647,344.03336L81.306465,344.03348C81.304,344.10242,81.25755,344.16196,81.191315,344.18115C81.12506,344.20032,81.053986,344.1748,81.015076,344.11786L81.015076,344.11786C76.25046,337.14575,71.51395,330.22055,66.27588,326.9903L66.27588,326.9903C63.257874,325.12915,60.065887,324.49243,56.788662,324.3753L56.788662,324.3753C54.395382,324.2898,51.96218,324.48135,49.517746,324.67398C49.429836,324.6809,49.35296,324.61523,49.34603,324.52734C49.339104,324.43942,49.404755,324.36255,49.49266,324.35562L49.49266,324.35562C51.933685,324.16327,54.38549,323.9699,56.800068,324.0562L56.800068,324.0562C60.112087,324.17456,63.36354,324.81915,66.4435,326.7185L66.4435,326.7185C71.752716,329.9926,76.52971,336.9884,81.27872,343.93768L80.987335,344.0221L80.987335,344.02194C80.99049,343.9338,81.06448,343.86493,81.1526,343.86807C81.24073,343.87122,81.309616,343.94522,81.30647,344.03336 Z"/>
</g>
<g style="fill:rgb(254,254,254); fill-opacity:1.0; stroke-linejoin: miter">
<path d="M83.85672,380.5268L83.85672,380.5268L83.856705,380.52692C83.8537,380.61124,83.78558,380.67865,83.70122,380.68085C83.61687,380.68298,83.545395,380.61914,83.53808,380.5351L83.53808,380.5351C82.12872,364.3426,80.718124,348.13812,80.75554,338.06256L80.75554,338.06256C80.793,327.973,82.282524,324.017,83.77201,320.06665C83.80313,319.98413,83.89523,319.94244,83.97774,319.97357C84.06025,320.00467,84.10191,320.0968,84.07081,320.1793L84.07081,320.1793C82.591484,324.1027,81.11216,328.02057,81.074875,338.06372L81.074875,338.06372C81.03753,348.12115,82.44623,364.3077,83.85621,380.50735L83.53758,380.5155L83.53758,380.51538C83.54073,380.42725,83.61472,380.35837,83.70285,380.3615C83.79098,380.3647,83.85986,380.43866,83.85672,380.5268 Z"/>
</g>
<g style="fill:rgb(254,254,254); fill-opacity:1.0; stroke-linejoin: miter">
<path d="M83.98824,380.3506L83.98824,380.3506L83.988235,380.35074L83.66947,380.33286C84.93851,363.73862,86.20653,347.15613,86.15866,337.21313L86.15866,337.21313C86.11086,327.2842,84.750984,323.993,83.393616,320.69904C83.36002,320.61752,83.39888,320.52417,83.48041,320.4906C83.561935,320.457,83.655266,320.49585,83.688866,320.57736L83.688866,320.57736C85.06068,323.9064,86.42997,327.23825,86.47798,337.2116L86.47798,337.2116C86.525925,347.17096,85.25639,363.76965,83.98787,380.35724C83.98125,380.4439,83.90651,380.5093,83.81973,380.50446C83.73295,380.49957,83.666,380.4262,83.66911,380.33936L83.66911,380.33936L83.66911,380.3392C83.672264,380.2511,83.746254,380.1822,83.83438,380.18533C83.9225,380.18848,83.991394,380.26248,83.98824,380.3506 Z"/>
</g>
<g style="fill:rgb(254,254,254); fill-opacity:1.0; stroke-linejoin: miter">
<path d="M72.99599,331.65793L72.99599,331.65793L72.99598,331.65808L72.67817,331.6311C73.226494,327.5529,73.777664,323.44257,75.60509,319.78278L75.60509,319.78278C77.43172,316.12457,80.52894,312.9259,83.60292,309.74924C83.634735,309.71637,83.67912,309.69873,83.72482,309.70074C83.77052,309.70282,83.813156,309.72437,83.84189,309.75995L83.84187,309.75995L83.854965,309.77615L83.85498,309.77618C87.029205,313.7075,90.22079,317.66098,91.97455,321.65155L91.97455,321.65155C93.73294,325.65262,94.042984,329.68304,94.35202,333.6834C94.35881,333.7713,94.293045,333.84808,94.205124,333.8549C94.1172,333.86166,94.040436,333.7959,94.033646,333.70798L94.033646,333.70798C93.7241,329.7011,93.41551,325.72403,91.682205,321.78L91.682205,321.78C89.94902,317.8363,86.788414,313.9176,83.60652,309.97678L83.60654,309.9768L83.59345,309.96057L83.832405,309.9713C80.750145,313.15652,77.691284,316.31958,75.890785,319.92545L75.890785,319.92545C74.09113,323.5296,73.54433,327.58542,72.99465,331.67365C72.98331,331.75803,72.907745,331.81866,72.82291,331.81146C72.73807,331.80426,72.673805,331.73175,72.67685,331.64667L72.67685,331.64667L72.67685,331.64655C72.68,331.5584,72.75399,331.4895,72.84212,331.49268C72.930244,331.49582,72.99913,331.5698,72.99599,331.65793 Z"/>
</g>
<g style="fill:rgb(254,254,254); fill-opacity:1.0; stroke-linejoin: miter">
<path d="M93.96441,328.9842L93.96441,328.9842L93.9644,328.9843L93.682976,328.87546C98.112495,323.64325,102.561035,318.38705,106.530495,315.49927L106.530495,315.49927C110.514626,312.60086,114.01482,312.08752,117.483215,311.57773C117.567924,311.56528,117.64737,311.62186,117.66331,311.70596C117.67925,311.79007,117.62602,311.87177,117.54264,311.8912L117.54264,311.8912C109.84809,313.68237,102.120224,315.48267,96.53901,315.2832L96.53901,315.2832C96.30327,315.27478,96.0712,315.2628,95.84306,315.24707L95.84306,315.24707C90.19122,314.85773,86.99179,312.18597,83.82585,309.5451C83.75814,309.48865,83.74904,309.38794,83.80551,309.32022C83.862,309.2525,83.96269,309.2434,84.03041,309.2999L84.03041,309.2999C87.194016,311.9388,90.32407,314.54678,95.865005,314.9285L95.865005,314.9285C96.08966,314.94397,96.31779,314.95578,96.550415,314.96408L96.550415,314.96408C102.07907,315.16168,109.75811,313.37546,117.47024,311.5802L117.529655,311.89365C114.06639,312.4027,110.63471,312.9084,106.71836,315.7575L106.71836,315.7575C102.78725,318.61737,98.36655,323.83737,93.9267,329.0818C93.88274,329.13373,93.81069,329.1521,93.74724,329.12753C93.68378,329.103,93.64284,329.04092,93.64527,328.97293L93.64527,328.97293L93.64528,328.97278C93.64842,328.88464,93.72243,328.8158,93.81055,328.8189C93.89867,328.82208,93.96756,328.89606,93.96441,328.9842 Z"/>
</g>
<g style="fill:rgb(254,254,254); fill-opacity:1.0; stroke-linejoin: miter">
<path d="M73.047745,327.0956L73.047745,327.0956L73.047745,327.09576L72.76902,326.98376C73.04645,326.67273,73.562996,326.3526,71.118576,324.17227L71.118576,324.17227C70.8313,323.91602,70.50504,323.63586,70.13334,323.3274L70.13334,323.3274C66.622765,320.4139,59.165676,315.06616,51.699093,309.71173C51.634777,309.66562,51.613953,309.57935,51.65015,309.50897C51.686348,309.43857,51.76864,309.40533,51.843563,309.43082L51.843563,309.43082C59.065426,311.88776,66.25638,314.33295,70.94597,314.76593L70.94598,314.76593C71.281624,314.7969,71.60243,314.81744,71.913055,314.82855L71.913055,314.82855C75.9129,314.9715,77.93118,313.52808,79.9791,312.06308C80.05082,312.01178,80.15055,312.02832,80.20185,312.10004C80.25316,312.17175,80.23661,312.27148,80.164894,312.32278L80.164894,312.32278C78.10278,313.7979,76.01115,315.29456,71.90164,315.14767L71.90164,315.14767C71.58481,315.13635,71.25796,315.11542,70.91661,315.0839L70.91662,315.0839C66.17974,314.64655,58.944534,312.1839,51.740715,309.73315L51.885185,309.4522C59.34603,314.80255,66.815575,320.15894,70.33728,323.08167L70.33728,323.08167C70.71128,323.39203,71.04067,323.6749,71.33114,323.93396L71.33114,323.93396C73.7567,326.09747,73.50156,326.6422,73.00733,327.19635C72.96254,327.24655,72.89108,327.2633,72.82865,327.23822C72.76621,327.21313,72.72621,327.1516,72.72861,327.08435L72.72861,327.08435L72.728615,327.08423C72.731766,326.9961,72.805756,326.92722,72.89388,326.93036C72.98201,326.9335,73.050896,327.0075,73.047745,327.0956 Z"/>
</g>
<g style="fill:rgb(254,254,254); fill-opacity:1.0; stroke-linejoin: miter">
<path d="M46.058437,319.91098L46.058437,319.91098L46.058434,319.91113C46.05541,319.99573,45.986877,320.06326,45.90224,320.06506C45.817604,320.06683,45.74628,320.00226,45.739685,319.91785L45.739685,319.91785C45.570503,317.7528,45.401638,315.55182,48.133095,312.53268L48.133095,312.53268C50.840496,309.54013,56.412785,305.72522,62.10151,304.44547L62.10151,304.44547C64.12765,303.98965,66.16551,303.85605,68.20894,303.92908L68.20894,303.92908C71.909134,304.06134,75.63548,304.8718,79.345245,305.67822C79.43141,305.69696,79.486084,305.78198,79.46735,305.86816C79.44862,305.95435,79.36359,306.009,79.27741,305.99026L79.27741,305.99026C75.56234,305.18268,71.86415,304.37924,68.19753,304.24823L68.19753,304.24823C66.17555,304.17596,64.16578,304.3084,62.171593,304.75702L62.171597,304.75702C56.555046,306.0205,51.038902,309.7968,48.369896,312.74692L48.369896,312.74692C45.724934,315.67047,45.891655,317.7636,46.05805,319.89297L45.739304,319.89972L45.739307,319.8996C45.74246,319.81146,45.816452,319.74255,45.904575,319.74573C45.9927,319.74887,46.061584,319.82285,46.058437,319.91098 Z"/>
</g>
<g style="fill:rgb(254,254,254); fill-opacity:1.0; stroke-linejoin: miter">
<path d="M88.67396,305.6958L88.67396,305.6958L88.67395,305.69595L88.46699,305.53778C92.56759,304.26282,96.69729,302.97757,101.29343,303.1418L101.29343,303.1418C102.316986,303.1784,103.36388,303.28687,104.43862,303.4831L104.43862,303.4831C110.33087,304.559,117.05999,308.27414,120.60095,311.54724L120.60095,311.54724C124.16408,314.84082,124.50987,317.69702,124.85072,320.51733C124.8613,320.6049,124.798904,320.68445,124.71136,320.695C124.62382,320.70557,124.54427,320.6432,124.5337,320.55566L124.5337,320.55566C124.19564,317.75842,123.86249,314.9969,120.38421,311.78174L120.38421,311.78174C116.88379,308.54614,110.20882,304.8613,104.381256,303.79724L104.381256,303.79724C103.32219,303.60385,102.29077,303.497,101.28201,303.46094L101.28201,303.46094C96.748405,303.29892,92.669365,304.56558,88.56179,305.8427C88.512375,305.8581,88.458565,305.84854,88.41744,305.8171C88.37632,305.78568,88.35298,305.73627,88.35483,305.68454L88.35483,305.68454L88.35483,305.68442C88.35798,305.59628,88.43198,305.5274,88.520096,305.53055C88.60822,305.5337,88.67711,305.6077,88.67396,305.6958 Z"/>
</g>
<g style="fill:rgb(254,254,254); fill-opacity:1.0; stroke-linejoin: miter">
<path d="M39.390717,327.69614L39.390717,327.69614L39.390713,327.69626C39.390102,327.7133,39.386776,327.7301,39.38085,327.7461L39.38085,327.7461C37.761715,332.1125,36.204777,336.3529,38.60966,339.61832L38.60966,339.61832C40.737274,342.50723,45.999847,344.6809,51.803688,344.8883L51.803688,344.8883C52.59612,344.91663,53.397835,344.90823,54.20211,344.86002L54.20211,344.86002C60.89009,344.45914,67.76785,341.30792,74.68182,338.1378L74.627975,338.38782C72.3363,335.75702,70.07928,333.1722,66.82681,332.16016L66.82681,332.16016C65.396255,331.71503,63.76588,331.57202,62.099045,331.51245L62.099045,331.51245C61.482475,331.49042,60.86429,331.47986,60.24873,331.46933L60.24873,331.46933C59.64821,331.45908,59.044582,331.44873,58.46183,331.4279L58.46183,331.4279C57.587524,331.39664,56.741318,331.34152,55.95189,331.2258L55.95189,331.2258C52.635727,330.73965,50.37784,329.19022,48.148468,327.66248C48.07573,327.61264,48.05717,327.51328,48.107018,327.44055C48.156864,327.3678,48.25624,327.34924,48.32898,327.39908L48.32898,327.39908C50.560455,328.92822,52.76332,330.43564,55.998207,330.90985L55.998207,330.90985C56.77082,331.0231,57.60385,331.0777,58.473236,331.10876L58.473236,331.10876C59.053185,331.1295,59.652428,331.13977,60.25419,331.15005L60.25419,331.15005C60.868507,331.16055,61.491135,331.1712,62.11045,331.19333L62.11045,331.19333C63.78306,331.2531,65.44878,331.39694,66.92169,331.85526L66.92169,331.85526C70.27535,332.8988,72.58942,335.56143,74.86876,338.17804C74.901825,338.216,74.915054,338.26733,74.90446,338.31653C74.89385,338.36575,74.86067,338.40707,74.81491,338.42807L74.81491,338.42807C67.915726,341.59143,60.98054,344.77362,54.221214,345.17877L54.221214,345.17877C53.40636,345.2276,52.594795,345.23615,51.792282,345.20746L51.792282,345.20746C45.944534,344.99847,40.56363,342.80994,38.352535,339.80768L38.352535,339.80768C35.824886,336.37555,37.484276,331.9422,39.081444,327.63507L39.071583,327.68488L39.071587,327.68472C39.074738,327.5966,39.14873,327.5277,39.236855,327.53088C39.32498,327.53403,39.393867,327.608,39.390717,327.69614 Z"/>
</g>
<g style="fill:rgb(254,254,254); fill-opacity:1.0; stroke-linejoin: miter">
<path d="M129.22462,327.51767L129.22462,327.51767L129.22462,327.51782L129.22462,327.51807C129.21205,335.52246,129.22513,343.76102,123.05008,345.73395L123.05008,345.73395C121.99167,346.0721,120.75798,346.22342,119.38358,346.22342L119.38358,346.22342C112.7815,346.22345,102.76015,342.72446,92.78369,339.24356C92.72823,339.2242,92.68788,339.17596,92.67862,339.11798C92.66936,339.06,92.69269,339.0016,92.739365,338.9659L92.739365,338.9659C95.94923,336.51398,99.192825,334.03284,103.23059,333.2097L103.23059,333.2097C104.81569,332.88654,106.517715,332.81982,108.16951,332.81982L108.16951,332.81982C108.77614,332.81982,109.375244,332.82883,109.96152,332.83762L109.96152,332.83762C110.52338,332.846,111.06767,332.8542,111.59654,332.8542L111.59654,332.8542C112.8466,332.8542,113.97673,332.80798,114.90478,332.61337L114.90478,332.61337C117.72513,332.02197,118.72473,330.04892,119.75578,328.00073C119.795425,327.92194,119.89142,327.89023,119.970184,327.92987C120.04895,327.96954,120.08066,328.06552,120.041016,328.1443L120.041016,328.1443C119.01398,330.18454,117.95553,332.29993,114.970314,332.9259L114.970314,332.9259C114.00752,333.1278,112.84896,333.17352,111.59654,333.17352L111.59654,333.17352C111.06614,333.17352,110.51683,333.16528,109.95674,333.15692L109.95674,333.15692C109.3687,333.1481,108.77475,333.13916,108.16951,333.13916L108.16951,333.13916C106.523315,333.13916,104.84721,333.20602,103.29437,333.52258L103.29437,333.52258C99.34034,334.32867,96.153854,336.7595,92.93321,339.2197L92.888885,338.94205C102.89142,342.43207,112.84944,345.9041,119.38358,345.90408L119.38358,345.90408C120.736465,345.90408,121.93515,345.7549,122.952896,345.42975L122.952896,345.42975C128.85406,343.54434,128.89253,335.64783,128.90529,327.51758L128.90529,327.51782L128.90529,327.51767C128.90529,327.42947,128.97678,327.358,129.06496,327.358C129.15314,327.358,129.22462,327.42947,129.22462,327.51767 Z"/>
</g>
<g style="fill:rgb(254,254,254); fill-opacity:1.0; stroke-linejoin: miter">
<path d="M55.98242,370.9681L55.98242,370.9681L55.98242,370.96826L55.922592,370.84366C61.159554,375.03967,66.361885,379.20544,70.07215,380.60928L70.07215,380.60928C71.808876,381.26642,73.2191,381.317,74.44,381.317L74.44,381.317C74.552246,381.317,74.66051,381.31656,74.76983,381.31616L74.76984,381.31616C74.87767,381.31573,74.976845,381.31537,75.08214,381.31537L75.08214,381.31537C76.17175,381.31537,77.14354,381.35788,78.05746,381.9475L78.05746,381.9475C80.07111,383.24664,81.7605,387.20013,83.41838,391.06152L83.12681,391.0573C84.80405,387.4403,86.51545,383.7273,89.74833,382.47687L89.74833,382.47687C91.32701,381.86624,93.25798,381.84833,95.19006,381.82837L95.19006,381.82837C97.22224,381.80734,99.261734,381.78436,100.99121,381.11682L100.99121,381.11682C104.377655,379.80972,106.61604,376.01422,108.89194,372.14038C108.93661,372.06436,109.034454,372.03894,109.11048,372.08362C109.186516,372.1283,109.211945,372.22614,109.167274,372.30215L109.167274,372.30215C106.91172,376.14136,104.61869,380.05896,101.1062,381.41473L101.1062,381.41473C99.312675,382.107,97.211395,382.12683,95.19336,382.14764L95.19336,382.14764C93.24464,382.1678,91.37739,382.18915,89.863525,382.7747L89.863525,382.7747C86.77615,383.9688,85.1134,387.5323,83.41651,391.19168C83.390015,391.24884,83.33237,391.28503,83.26937,391.28415C83.206375,391.28326,83.1498,391.2454,83.12495,391.1875L83.12495,391.1875C81.44366,387.27158,79.79388,383.4478,77.88434,382.21582L77.88434,382.21582C77.057,381.68207,76.1727,381.63467,75.08214,381.63467L75.08214,381.63467C74.97766,381.63467,74.87889,381.63507,74.77106,381.63547L74.771065,381.63547C74.66174,381.6359,74.55302,381.63632,74.44,381.63632L74.44,381.63632C73.20531,381.63632,71.74952,381.5854,69.959145,380.90796L69.959145,380.90796C66.1894,379.48163,60.938793,375.27197,55.722923,371.09286C55.685104,371.06256,55.663094,371.01672,55.663094,370.96826L55.663094,370.96826L55.663094,370.9681C55.663094,370.8799,55.734577,370.80844,55.822758,370.80844C55.910942,370.80844,55.98242,370.8799,55.98242,370.9681 Z"/>
</g>
<g style="fill:rgb(254,254,254); fill-opacity:1.0; stroke-linejoin: miter">
<path d="M77.73914,381.86914L77.73914,381.86914L77.73914,381.86932L77.497604,381.73224L77.505974,381.72723L77.5061,381.72714C78.98,380.84875,80.441666,379.98154,81.35421,376.19495L81.35421,376.19495C82.27989,372.35382,82.6199,365.60294,81.038956,362.52112L81.038956,362.52112C80.080414,360.65256,78.402435,360.12738,76.391304,360.12738L76.391304,360.12738C75.15679,360.12738,73.813034,360.32593,72.454346,360.527C72.36711,360.53992,72.285934,360.47968,72.273026,360.39246C72.26012,360.3052,72.320366,360.22403,72.40759,360.21112L72.40759,360.21112C73.76088,360.01086,75.12871,359.80807,76.391304,359.80807L76.391304,359.80807C78.458694,359.80807,80.285934,360.35358,81.32309,362.37537L81.32309,362.37537C82.95971,365.5657,82.59345,372.4157,81.66465,376.26978L81.66465,376.26978C80.72614,380.16406,79.19286,381.09363,77.66959,382.00146L77.66972,382.00137L77.66136,382.00638C77.61188,382.03586,77.55055,382.0365,77.50061,382.00812C77.45067,381.97974,77.419815,381.92676,77.419815,381.86932L77.419815,381.86932L77.419815,381.86914C77.419815,381.78098,77.4913,381.70947,77.57948,381.70947C77.66766,381.70947,77.73914,381.78098,77.73914,381.86914 Z"/>
</g>
<g style="fill:rgb(254,254,254); fill-opacity:1.0; stroke-linejoin: miter">
<path d="M89.8029,382.2768L89.8029,382.2768L89.8029,382.27695C89.8029,382.34152,89.76401,382.39972,89.704346,382.42444C89.64469,382.44916,89.57602,382.43552,89.53036,382.38986L89.53034,382.38983L89.51866,382.37817L89.51867,382.37817C87.58548,380.44547,85.61585,378.4738,85.30452,374.73337L85.30452,374.73337C84.99506,371.01544,86.325584,365.54868,87.90376,362.81982L87.90376,362.81982C89.3344,360.34607,90.98223,360.09662,92.61946,360.09662L92.61946,360.09662C92.818726,360.09662,93.011604,360.1001,93.209274,360.10364C93.29744,360.10522,93.36762,360.17798,93.36604,360.26617C93.364456,360.3543,93.2917,360.4245,93.20354,360.4229L93.20354,360.4229C93.005875,360.41937,92.81494,360.41595,92.61946,360.41595L92.61946,360.41595C91.05089,360.41595,89.53421,360.63843,88.1802,362.97968L88.1802,362.97968C86.63425,365.65283,85.318756,371.05463,85.62276,374.7069L85.62276,374.7069C85.92363,378.32175,87.812584,380.22098,89.74444,382.15234L89.74445,382.15234L89.756134,382.16406L89.48358,382.27695L89.48358,382.2768C89.48358,382.1886,89.55506,382.11713,89.64324,382.11713C89.731415,382.11713,89.8029,382.1886,89.8029,382.2768 Z"/>
</g>
<g style="fill:rgb(254,254,254); fill-opacity:1.0; stroke-linejoin: miter">
<path d="M375.39215,406.39337L375.39215,406.39337L375.39215,406.39343C375.39215,406.44885,375.36337,406.50037,375.31613,406.52942C375.26892,406.55847,375.21,406.5609,375.1605,406.53595L375.1605,406.53595C369.42883,403.64032,363.60406,400.70813,361.82,394.8968L361.82,394.8968C360.0406,389.10052,362.29376,380.4881,365.9955,374.39465L365.9955,374.39465C369.70593,368.28693,374.8858,364.6831,380.0352,361.09833C380.08084,361.06653,380.13974,361.0608,380.19067,361.0832C380.24158,361.10553,380.2772,361.15283,380.28464,361.20795L380.28464,361.20795C380.828,365.22516,381.38455,369.30646,380.23358,372.2608L380.23358,372.2608C379.07715,375.22925,376.2152,377.03314,373.65533,378.26855L373.65533,378.26855C373.02554,378.57245,372.41223,378.84277,371.8261,379.10114L371.8261,379.10114C371.28546,379.33942,370.7699,379.5667,370.28302,379.80164L370.28302,379.80164C369.1422,380.35217,368.17896,380.93604,367.47037,381.76752L367.47037,381.76752C366.123,383.34863,365.6651,385.85522,365.20023,388.4264C365.18454,388.51312,365.10147,388.5708,365.0147,388.5551C364.92795,388.53943,364.8703,388.45636,364.886,388.36957L364.886,388.36957C365.34558,385.82764,365.81216,383.221,367.22733,381.56042L367.22733,381.56042C367.97986,380.6773,368.99197,380.07013,370.14423,379.51404L370.14423,379.51404C370.63687,379.2763,371.15784,379.0467,371.6973,378.8089L371.6973,378.8089C372.284,378.5503,372.89252,378.2821,373.51654,377.98096L373.51654,377.98096C376.06772,376.74976,378.82724,374.99103,379.93604,372.1449L379.93604,372.1449C381.0503,369.2848,380.51584,365.2998,379.9682,361.25073L380.21765,361.3604C375.06314,364.9488,369.9391,368.51813,366.26843,374.56042L366.26843,374.56042C362.5891,380.61694,360.38406,389.13123,362.12527,394.80304L362.12527,394.80304C363.86188,400.45978,369.5366,403.33698,375.30447,406.25092L375.0728,406.39343L375.0728,406.39337C375.0728,406.30518,375.1443,406.2337,375.23248,406.2337C375.32068,406.2337,375.39215,406.30518,375.39215,406.39337 Z"/>
</g>
<g style="fill:rgb(254,254,254); fill-opacity:1.0; stroke-linejoin: miter">
<path d="M381.2392,378.62292L381.2392,378.62292L381.2392,378.623C381.2392,378.65118,381.23175,378.67883,381.2176,378.7032L381.2176,378.7032C377.50015,385.10553,373.8068,391.4704,372.83936,395.98187L372.83936,395.98187C371.88,400.45575,373.60757,403.10004,375.3686,405.79083C375.41687,405.86462,375.3962,405.96356,375.32242,406.01184C375.24866,406.06012,375.1497,406.0395,375.10138,405.9657L375.10138,405.9657C373.3366,403.26917,371.53833,400.52612,372.52713,395.91492L372.52713,395.91492C373.50787,391.3413,377.23672,384.92322,380.94144,378.54285L380.91986,378.623L380.91986,378.62292C380.91986,378.53473,380.99133,378.46326,381.07953,378.46326C381.1677,378.46326,381.2392,378.53473,381.2392,378.62292 Z"/>
</g>
<g style="fill:rgb(254,254,254); fill-opacity:1.0; stroke-linejoin: miter">
<path d="M383.61273,378.87488L383.61273,378.87488L383.61273,378.87494L383.58148,378.78003C386.79523,383.12714,390.04456,387.51642,390.79565,392.2379L390.79565,392.2379C391.54694,396.9605,389.79593,401.99548,388.06656,406.97925L387.895,406.76855C390.53726,406.42273,393.1518,406.08075,396.5404,403.23846L396.5404,403.23846C399.94284,400.38464,404.08728,395.04486,402.22284,387.45142L402.22284,387.45142C400.34805,379.8156,392.41232,369.88794,384.43387,359.9129L384.71725,359.8308L384.71548,359.84668L384.71548,359.84668C384.1949,364.5417,383.69623,369.13605,385.3282,371.7497L385.3282,371.7497C386.3101,373.32227,388.07492,374.19183,389.90265,375.08722L389.90265,375.08722C391.08618,375.66705,392.2932,376.25757,393.28085,377.0597L393.28085,377.0597C395.78284,379.09167,396.85086,382.45825,397.9035,385.76007C397.93027,385.84412,397.88388,385.93396,397.79987,385.96075C397.71585,385.9875,397.62604,385.9411,397.59924,385.85712L397.59924,385.85712C396.53857,382.5301,395.49335,379.26794,393.07953,377.30756L393.07953,377.30756C392.12524,376.53253,390.95267,375.9572,389.76218,375.37402L389.76218,375.37402C387.9546,374.48846,386.09644,373.583,385.0573,371.91882L385.0573,371.91882C383.35208,369.18774,383.8836,364.45148,384.3981,359.81146L384.3981,359.81146L384.39987,359.7956C384.40698,359.73138,384.4521,359.6778,384.5141,359.65985C384.57614,359.64185,384.64288,359.66302,384.68323,359.71344L384.68323,359.71344C392.6388,369.65985,400.6371,379.65356,402.533,387.3753L402.533,387.3753C404.43927,395.13934,400.1911,400.5932,396.7456,403.48315L396.7456,403.48315C393.2863,406.38477,390.59747,406.73688,387.93643,407.0852C387.88156,407.09235,387.82687,407.07062,387.79193,407.0277C387.75696,406.9848,387.74673,406.92682,387.7649,406.8745L387.7649,406.8745C389.50153,401.8698,391.21655,396.91614,390.4803,392.2881L390.4803,392.2881C389.74387,387.65894,386.55206,383.3354,383.32468,378.9699C383.30438,378.94238,383.2934,378.90912,383.2934,378.87494L383.2934,378.87494L383.2934,378.87488C383.2934,378.78668,383.3649,378.7152,383.45306,378.7152C383.54126,378.7152,383.61273,378.78668,383.61273,378.87488 Z"/>
</g>
<g style="fill:rgb(254,254,254); fill-opacity:1.0; stroke-linejoin: miter">
<path d="M368.1147,371.22052L368.1147,371.22052L368.11465,371.22064C368.11172,371.28583,368.06943,371.34265,368.00784,371.3642C367.94626,371.38568,367.87778,371.3676,367.83487,371.31848L367.83487,371.31848C364.39517,367.37775,360.91223,363.39398,360.8065,356.89752L360.8065,356.89752C360.70728,350.80316,363.58417,342.5042,365.75476,336.23755L365.75476,336.23755C365.8889,335.8504,366.01837,335.47662,366.14636,335.10553L366.14636,335.10553C368.3485,328.72253,369.52148,324.87238,370.69476,321.02118C370.72046,320.93683,370.80966,320.88928,370.894,320.91498C370.9784,320.94067,371.02594,321.0299,371.00024,321.11426L371.00024,321.11426C369.82654,324.9668,368.65228,328.82117,366.44824,335.20966L366.44824,335.20966C366.32123,335.57782,366.1895,335.95807,366.05652,336.3421L366.05652,336.3421C363.87878,342.62927,361.02768,350.8672,361.12576,356.89227L361.12576,356.89227C361.22943,363.25903,364.6308,367.1621,368.07544,371.10846L367.79565,371.2063L367.79565,371.20618C367.79962,371.1181,367.87427,371.04987,367.96234,371.0539C368.05045,371.0578,368.11865,371.13245,368.1147,371.22052 Z"/>
</g>
<g style="fill:rgb(254,254,254); fill-opacity:1.0; stroke-linejoin: miter">
<path d="M364.0753,376.70367L364.0753,376.70367L364.07526,376.70374C364.07263,376.76215,364.03827,376.8145,363.98566,376.8401L363.98544,376.8402L363.9839,376.841L363.9841,376.84088C359.89514,378.83197,355.7454,380.8579,352.59863,380.7162L352.59863,380.7162C351.8523,380.68256,351.157,380.52728,350.52994,380.21808L350.52994,380.21808C347.25003,378.6009,346.00476,372.891,347.89853,368.12842L347.89853,368.12842C349.79886,363.34937,354.86905,359.45856,359.88275,355.60504L359.9371,355.88544C354.18185,354.2782,348.2983,352.64862,346.33536,348.30365L346.33536,348.30365C344.37775,343.97058,346.33792,336.9715,350.97662,334.44354L350.97662,334.44354C352.93677,333.37537,355.3606,333.1136,357.71667,333.21973L357.71667,333.21973C360.86203,333.3614,363.9206,334.16077,365.66168,334.61554L365.66168,334.61554L365.80508,334.653L365.80505,334.653C365.94785,334.69025,366.07324,334.72284,366.19803,334.75525L366.19803,334.75525C366.3015,334.7821,366.4088,334.81,366.49966,334.83374L366.49966,334.83374C367.93353,335.20776,368.00003,335.24896,368.5119,335.7959L368.5119,335.7959C368.7282,336.02704,369.03503,336.35498,369.6062,336.85846L369.6062,336.85846C369.98517,337.19257,370.48077,337.60413,371.0534,338.07965L371.0534,338.07965C371.82703,338.72205,372.73975,339.47998,373.6857,340.31384L373.6857,340.31384C375.75327,342.1364,377.99664,344.33618,379.31888,346.5188L379.31888,346.5188C381.70187,350.4522,381.07855,354.30328,380.4701,358.09143C380.45856,358.16345,380.39966,358.21844,380.327,358.2251C380.25436,358.23175,380.18646,358.1883,380.16202,358.11957L380.16202,358.11957C378.9121,354.60382,377.6678,351.10516,375.80725,347.93738L375.80725,347.93738C373.94666,344.76947,371.46704,341.9276,368.97522,339.0725C368.91724,339.0061,368.92407,338.9052,368.9905,338.84723C369.05695,338.78925,369.1578,338.79614,369.2158,338.86255L369.2158,338.86255C371.70392,341.71338,374.20422,344.57745,376.0826,347.7757L376.0826,347.7757C377.9611,350.97406,379.2148,354.50195,380.4629,358.01263L380.15482,358.04077C380.76508,354.2414,381.36044,350.50494,379.04578,346.68427L379.04578,346.68427C377.75055,344.54633,375.53943,342.3736,373.47455,340.5534L373.47455,340.5534C372.53275,339.7232,371.62317,338.96783,370.8494,338.32532L370.8494,338.32532C370.2782,337.85095,369.77826,337.43585,369.39502,337.09802L369.39502,337.09802C368.81308,336.58502,368.49844,336.2489,368.27875,336.0141L368.27875,336.0141C367.8305,335.53516,367.83752,335.51276,366.41907,335.1427L366.41907,335.1427C366.32623,335.11847,366.2234,335.0918,366.11774,335.06433L366.11774,335.06433C365.99384,335.0321,365.86652,334.99902,365.72446,334.96198L365.72443,334.96198L365.581,334.9245L365.581,334.9245C363.838,334.46924,360.8097,333.6787,357.7023,333.53876L357.7023,333.53876C355.37173,333.43378,353.01575,333.69598,351.12946,334.72394L351.12946,334.72394C346.64618,337.16724,344.73343,343.98224,346.62637,348.17218L346.62637,348.17218C348.51392,352.35028,354.2043,353.95294,360.02298,355.57788C360.08124,355.59418,360.12527,355.6419,360.13678,355.7013C360.14832,355.76062,360.12527,355.8214,360.07733,355.85828L360.07733,355.85828C355.03848,359.73114,350.0561,363.5667,348.19525,368.2464L348.19525,368.2464C346.32788,372.94257,347.61285,378.42377,350.67114,379.9317L350.67114,379.9317C351.25146,380.21777,351.9019,380.3651,352.613,380.39716L352.613,380.39716C355.65878,380.53436,359.72104,378.56158,363.8443,376.55377L363.84454,376.55365L363.8461,376.55286L363.75626,376.6894L363.75626,376.68927C363.76022,376.6012,363.83487,376.53296,363.92297,376.53693C364.01105,376.5409,364.07925,376.61554,364.0753,376.70367 Z"/>
</g>
<g style="fill:rgb(254,254,254); fill-opacity:1.0; stroke-linejoin: miter">
<path d="M397.07812,373.81207L397.07812,373.81207L397.07812,373.8122L396.78574,373.70917L396.7975,373.69122L396.7975,373.69122C400.37018,368.2484,403.9102,362.8404,403.26892,354.01514L403.26892,354.01514C402.62494,345.15265,397.76764,332.84424,392.89362,320.49835C392.8612,320.41632,392.90146,320.3236,392.9835,320.2912C393.0655,320.25885,393.15823,320.29907,393.1906,320.3811L393.1906,320.3811C398.05646,332.70624,402.93903,345.0689,403.5874,353.992L403.5874,353.992C404.2371,362.93298,400.63904,368.42078,397.06442,373.86652L397.06442,373.86652L397.05267,373.8844C397.0124,373.9458,396.9354,373.97174,396.86615,373.94733C396.79688,373.9229,396.75317,373.85443,396.76028,373.7813L396.76028,373.7813L396.7603,373.78125C396.76883,373.69348,396.84686,373.6292,396.93463,373.63776C397.0224,373.64624,397.08667,373.7243,397.07812,373.81207 Z"/>
</g>
<g style="fill:rgb(254,254,254); fill-opacity:1.0; stroke-linejoin: miter">
<path d="M397.05334,373.42578L397.05334,373.42578L397.05334,373.42584L397.0021,373.29254C400.59045,376.5697,404.11682,379.7801,407.5323,380.11176L407.5323,380.11176C408.30396,380.1867,409.0692,380.11407,409.82855,379.86115L409.82855,379.86115C413.921,378.498,417.8851,371.89813,416.05237,366.396L416.05237,366.396C416.03342,366.33917,416.01422,366.2834,415.99405,366.2268L415.99405,366.2268C414.01978,360.68652,406.03503,356.27527,399.75607,355.05878L399.75607,355.05878C399.0951,354.93073,398.45456,354.83844,397.83105,354.7779L397.83105,354.7779C392.56104,354.26617,388.53918,356.0276,384.48007,357.80792L384.40335,357.50256C393.5596,356.77917,402.67252,356.05725,408.45386,353.58844L408.45386,353.58844C414.21613,351.1278,416.65714,346.93182,417.19525,343.71313L417.19525,343.71313C417.72876,340.52203,416.3957,338.27356,413.20187,336.4087L413.20187,336.4087C411.2265,335.2553,408.55276,334.2586,405.7282,333.9843L405.7282,333.9843C403.96915,333.81354,402.15475,333.92316,400.41513,334.44684L400.41513,334.44684C395.8759,335.81323,391.8033,340.01147,389.33325,344.06366L389.33325,344.06366C386.86887,348.1065,386.01297,351.98285,385.15247,355.88477L384.86392,355.7614C386.76147,352.9314,388.6671,350.0888,390.61383,347.89294L390.61383,347.89294C392.56302,345.69434,394.5511,344.14648,396.5276,342.60718C396.59717,342.55304,396.69748,342.5655,396.75165,342.63507C396.80585,342.70465,396.79337,342.80493,396.7238,342.85913L396.7238,342.85913C394.746,344.3994,392.78006,345.9309,390.85278,348.1048L390.85278,348.1048C388.9232,350.2813,387.03015,353.10406,385.12915,355.93927C385.08643,356.003,385.0044,356.02734,384.9338,355.9972C384.86322,355.96704,384.8241,355.89093,384.84064,355.81598L384.84064,355.81598C385.70062,351.91638,386.56522,347.99115,389.0606,343.89746L389.0606,343.89746C391.5503,339.81305,395.6768,335.53967,400.3231,334.14105L400.3231,334.14105C402.10953,333.60327,403.9666,333.49243,405.7591,333.6665L405.7591,333.6665C408.63477,333.94574,411.35254,334.9591,413.3629,336.13293L413.3629,336.13293C416.63815,338.04535,418.07132,340.40973,417.51022,343.7658L417.51022,343.7658C416.95374,347.0943,414.4394,351.3797,408.57925,353.88214L408.57925,353.88214C402.7382,356.3764,393.56168,357.09937,384.4285,357.82086C384.35083,357.82703,384.28006,357.77618,384.26108,357.70062C384.2421,357.62506,384.28046,357.5468,384.3518,357.5155L384.3518,357.5155C388.40686,355.73694,392.49945,353.93933,397.86194,354.46008L397.86194,354.46008C398.49564,354.5216,399.14606,354.61536,399.8168,354.7453L399.8168,354.7453C406.13217,355.9688,414.26273,360.41693,416.29486,366.11957L416.29486,366.11957C416.3159,366.17865,416.33557,366.23578,416.35532,366.29504L416.35532,366.29504C418.24493,371.9679,414.18582,378.74634,409.92944,380.16412L409.92947,380.16412C409.12485,380.43213,408.3144,380.50854,407.5014,380.42963L407.5014,380.42963C403.95502,380.08527,400.3399,376.77332,396.78674,373.52832C396.74963,373.49445,396.73065,373.445,396.7355,373.39502L396.7355,373.39502L396.73553,373.3949C396.74405,373.30713,396.8221,373.24286,396.90988,373.2514C396.99765,373.25995,397.0619,373.338,397.05334,373.42578 Z"/>
</g>
<g style="fill:rgb(254,254,254); fill-opacity:1.0; stroke-linejoin: miter">
<path d="M359.63986,355.87213L359.63986,355.87213L359.63986,355.8722L359.45294,355.7057C362.70975,355.13593,365.99005,354.56122,369.0508,354.73773L369.0508,354.73773C369.36768,354.75598,369.68265,354.78235,369.99487,354.81757L369.99487,354.81757C373.32422,355.19318,376.34842,356.57928,379.34555,357.95154C379.41742,357.9845,379.4544,358.065,379.4325,358.141C379.41058,358.21692,379.33636,358.26544,379.25803,358.255L379.25803,358.255L359.37485,355.60956C359.28745,355.59796,359.226,355.51764,359.23764,355.43024C359.24927,355.34283,359.32956,355.28143,359.41696,355.29303L359.41696,355.29303L379.30014,357.93848L379.21262,358.24188C376.2074,356.86597,373.22925,355.50385,369.95908,355.1349L369.95908,355.1349C369.65295,355.10034,369.34387,355.07446,369.0324,355.05652L369.0324,355.05652C366.01553,354.88257,362.77335,355.44897,359.50797,356.02026C359.45993,356.0287,359.41068,356.01465,359.37427,355.98224C359.33786,355.94977,359.31824,355.90247,359.32104,355.85382L359.32104,355.85382L359.32104,355.85376C359.32614,355.76575,359.4016,355.6985,359.48965,355.70355C359.5777,355.70862,359.64493,355.78412,359.63986,355.87213 Z"/>
</g>
<g style="fill:rgb(254,254,254); fill-opacity:1.0; stroke-linejoin: miter">
<path d="M381.22214,343.6662L381.22214,343.6662L381.2221,343.66626C381.20938,343.74542,381.1399,343.80286,381.05972,343.80048C380.97955,343.79803,380.91364,343.73657,380.9056,343.6568L380.9056,343.6568C380.59274,340.53864,380.28174,337.48474,378.77786,335.41638L378.77786,335.41638C378.25436,334.6964,377.58386,334.09235,376.84805,333.43036L376.84805,333.43036C376.0007,332.66803,375.0746,331.8354,374.23624,330.68237L374.23624,330.68237C373.71976,329.97205,373.23712,329.14105,372.82455,328.12988L372.82455,328.12988C371.1723,324.08044,370.6325,317.09637,372.53613,313.32343L372.53613,313.32343C374.45728,309.51587,378.83948,309.01575,383.09027,308.5177C383.11255,308.51508,383.1351,308.5172,383.15652,308.52393L383.15652,308.52393L383.1657,308.5268L383.1657,308.5268C387.12274,309.76477,391.1818,311.0268,392.79468,314.95117L392.79468,314.95117C394.39758,318.85132,393.56668,325.34637,391.84277,329.1565L391.84277,329.1565C390.708,331.6645,389.1829,333.0207,387.86615,334.19263L387.86615,334.19263C387.16763,334.81427,386.53674,335.37653,386.042,336.03137L386.042,336.03137C384.61182,337.92438,384.29788,340.62042,383.98126,343.37854C383.97122,343.4662,383.89203,343.52905,383.80444,343.51898C383.71683,343.5089,383.65396,343.42975,383.664,343.34216L383.664,343.34216C383.9777,340.60974,384.29404,337.81525,385.7872,335.83887L385.7872,335.83887C386.30435,335.15436,386.96027,334.57135,387.65384,333.9541L387.65384,333.9541C388.9665,332.78583,390.44678,331.46722,391.55182,329.02484L391.55182,329.02484C393.2536,325.26367,394.05768,318.86438,392.4993,315.07257L392.4993,315.07257C390.9533,311.31085,387.06467,310.08124,383.07034,308.83154L383.07034,308.83154L383.06116,308.82867L383.1274,308.8349C378.8234,309.3391,374.65076,309.8413,372.82123,313.4673L372.82123,313.4673C370.9742,317.128,371.48795,324.0088,373.1202,328.00922L373.1202,328.00922C373.52274,328.99573,373.99255,329.8042,374.4945,330.49457L374.4945,330.49457C375.3107,331.61713,376.213,332.4295,377.0616,333.19293L377.0616,333.19293C377.7925,333.85052,378.48944,334.47668,379.03613,335.22858L379.03613,335.22858C380.60144,337.38147,380.91333,340.53522,381.22336,343.62494L380.90686,343.61548L380.90686,343.61542C380.92087,343.52838,381.0028,343.46918,381.08987,343.48315C381.17694,343.4972,381.23615,343.5791,381.22214,343.6662 Z"/>
</g>
<g style="fill:rgb(13,239,212); fill-opacity:1.0; stroke-linejoin: miter">
<path d="M382.34885,342.15057L382.34885,342.15057L382.34885,342.15063L382.34894,342.14856C381.54367,361.3037,380.73865,380.45398,380.6941,391.8216L380.6941,391.8216C380.6496,403.18292,381.36475,406.76166,382.07867,410.34015L381.7633,410.3548C382.53528,402.97076,383.30673,395.5912,383.43402,384.28815L383.43402,384.28815C383.56137,372.9818,383.04422,357.74976,382.52682,342.5122C382.52383,342.42407,382.59283,342.35022,382.68097,342.34723C382.7691,342.34418,382.843,342.4132,382.84598,342.50134L382.84598,342.50134C383.36328,357.73627,383.88077,372.97644,383.75336,384.29175L383.75336,384.29175C383.6259,395.61005,382.85312,403.00165,382.0809,410.388C382.0727,410.4665,382.00836,410.52722,381.9295,410.53088C381.85065,410.53455,381.78098,410.48004,381.76553,410.40265L381.76553,410.40265C381.04724,406.80237,380.3302,403.20233,380.3748,391.82037L380.3748,391.82037C380.41934,380.44525,381.22476,361.28687,382.0299,342.1352L382.03,342.13306L382.03,342.133C382.03485,342.04492,382.11017,341.97748,382.1982,341.98236C382.28625,341.98718,382.3537,342.0625,382.34885,342.15057 Z"/>
</g>
<g style="fill:rgb(253,0,9); fill-opacity:1.0; stroke-linejoin: miter">
<path d="M379.86047,339.23077L379.86047,339.23077L379.98505,334.83917C380.02768,333.33673,381.28024,332.15326,382.7827,332.19592C384.2852,332.23853,385.46863,333.4911,385.42603,334.9936L385.42603,334.9936L385.30142,339.38513C385.2588,340.88763,384.00623,342.0711,382.50375,342.02844C381.00128,341.98584,379.81784,340.73328,379.86047,339.23077 Z"/>
</g>
<g style="fill:rgb(253,0,9); fill-opacity:1.0; stroke-linejoin: miter">
<path d="M367.46902,389.0833L367.46902,389.0833L367.46902,389.08344C367.3208,390.57922,365.9881,391.67163,364.49237,391.52344C362.99658,391.37518,361.90417,390.04254,362.0524,388.54675L362.0524,388.54675L362.05243,388.54657C362.20062,387.05084,363.53333,385.95844,365.02908,386.10663C366.52484,386.25488,367.61725,387.58752,367.46902,389.0833 Z"/>
</g>
<g style="fill:rgb(253,0,9); fill-opacity:1.0; stroke-linejoin: miter">
<path d="M400.6632,387.30304L400.6632,387.30304L400.6632,387.30322C400.51498,388.799,399.18228,389.89142,397.68652,389.74316C396.19077,389.59497,395.09836,388.26227,395.24658,386.76654L395.24658,386.76654L395.24658,386.76636C395.3948,385.27063,396.72748,384.17816,398.22327,384.32642C399.71902,384.4746,400.8114,385.8073,400.6632,387.30304 Z"/>
</g>
<g style="fill:rgb(0,148,136); fill-opacity:1.0; stroke-linejoin: miter">
<path d="M368.42368,374.11206L368.42368,374.11206L368.42365,374.11224C368.27545,375.60797,366.94275,376.70038,365.447,376.5522C363.95123,376.404,362.85883,375.0713,363.00702,373.5755L363.00702,373.5755L363.00705,373.57538C363.15527,372.0796,364.48795,370.98718,365.9837,371.13538C367.47946,371.28363,368.57187,372.61627,368.42368,374.11206 Z"/>
</g>
<g style="fill:rgb(0,148,136); fill-opacity:1.0; stroke-linejoin: miter">
<path d="M399.9443,373.12982L399.9443,373.12982L399.9443,373.12994C399.79608,374.62573,398.46338,375.71814,396.96765,375.5699C395.47186,375.4217,394.3795,374.089,394.52768,372.59326L394.52768,372.59326L394.5277,372.59308C394.6759,371.09735,396.0086,370.00494,397.50436,370.15314C399.00012,370.30133,400.09253,371.63403,399.9443,373.12982 Z"/>
</g>
<g style="fill:rgb(0,148,136); fill-opacity:1.0; stroke-linejoin: miter">
<path d="M398.98328,342.90314L398.98328,342.90314L398.98325,342.90332C398.83505,344.3991,397.50235,345.49152,396.0066,345.34326C394.51083,345.19507,393.41843,343.86237,393.56665,342.36664L393.56665,342.36664L393.56665,342.36646C393.71484,340.87067,395.04755,339.77826,396.5433,339.9265C398.03906,340.0747,399.13147,341.4074,398.98328,342.90314 Z"/>
</g>
<g style="fill:rgb(0,148,136); fill-opacity:1.0; stroke-linejoin: miter">
<path d="M371.45334,339.9057L371.45334,339.9057L371.45334,339.90582C371.3051,341.4016,369.9724,342.49402,368.47665,342.34576C366.9809,342.19757,365.8885,340.86493,366.0367,339.36914L366.0367,339.36914L366.03674,339.36896C366.18494,337.87323,367.51764,336.78082,369.0134,336.92902C370.50916,337.0772,371.60156,338.4099,371.45334,339.9057 Z"/>
</g>
<g style="fill:rgb(0,148,136); fill-opacity:1.0; stroke-linejoin: miter">
<path d="M384.38397,359.68518L384.38397,359.68518L384.38397,359.68536C384.23578,361.1811,382.90308,362.2735,381.40732,362.1253C379.91156,361.9771,378.81915,360.6444,378.96735,359.14862L378.96735,359.14862L378.96735,359.1485C379.11557,357.6527,380.44827,356.5603,381.94403,356.70856C383.4398,356.85675,384.5322,358.1894,384.38397,359.68518 Z"/>
</g>
</g>
</svg>